<?xml version="1.0" encoding="UTF-8" standalone="no"?>
<!DOCTYPE svg PUBLIC "-//W3C//DTD SVG 1.1//EN" "http://www.w3.org/Graphics/SVG/1.1/DTD/svg11.dtd">
<svg width="100%" height="100%" viewBox="0 0 192 192" version="1.1" xmlns="http://www.w3.org/2000/svg" xmlns:xlink="http://www.w3.org/1999/xlink" xml:space="preserve" xmlns:serif="http://www.serif.com/" style="fill-rule:evenodd;clip-rule:evenodd;stroke-linejoin:round;stroke-miterlimit:2;">
    <style>
        path { fill: #000; }
        @media (prefers-color-scheme: dark) {
            path { fill: #fff; }
        }
    </style>
    <g transform="matrix(19.910647,0,0,19.910647,-7306.823262,-6145.444836)">
        <path d="M372.421,317.253C372.269,317.264 372.17,317.27 372.17,317.27C372.17,317.27 371.873,316.547 371.491,315.686C369.703,315.63 369.712,315.613 369.589,315.65C369.222,315.759 369.179,317.35 368.872,317.379C368.765,317.389 367.293,317.228 367.267,317.204C367.227,317.168 369.129,311.491 369.655,309.921C369.649,309.907 369.646,309.9 369.646,309.9C369.646,309.9 369.653,309.896 369.666,309.891C369.718,309.734 369.756,309.623 369.775,309.566C370.471,309.611 370.945,309.647 371.183,309.692C371.335,309.682 371.434,309.675 371.434,309.675C371.434,309.675 371.731,310.398 372.114,311.259C373.902,311.315 373.893,311.332 374.016,311.295C374.382,311.187 374.426,309.596 374.732,309.566C374.839,309.556 376.312,309.717 376.338,309.741C376.377,309.778 374.476,315.455 373.949,317.024C373.955,317.038 373.958,317.046 373.958,317.046C373.958,317.046 373.951,317.049 373.939,317.055C373.886,317.211 373.849,317.323 373.83,317.379C373.134,317.334 372.659,317.299 372.421,317.253ZM370.562,312.194C370.313,312.625 370.069,313.351 369.846,314.002C370.523,313.984 371.066,313.947 371.264,313.933C371.189,313.766 371.108,313.602 371.022,313.443C370.942,313.191 370.764,312.716 370.562,312.194ZM373.043,314.751C373.291,314.321 373.536,313.594 373.759,312.943C373.082,312.961 372.538,312.998 372.34,313.013C372.416,313.18 372.496,313.344 372.583,313.502C372.662,313.754 372.84,314.229 373.043,314.751Z"/>
    </g>
</svg>
