<?xml version="1.0" encoding="UTF-8" standalone="no"?>
<svg width="100%" height="100%" viewBox="0 0 192 192" version="1.1" xmlns="http://www.w3.org/2000/svg" xmlns:xlink="http://www.w3.org/1999/xlink" xml:space="preserve" xmlns:serif="http://www.serif.com/" style="fill-rule:evenodd;clip-rule:evenodd;stroke-linejoin:round;stroke-miterlimit:2;">
    <style>
        path { fill: #000; }
        @media (prefers-color-scheme: dark) {
            path { fill: #fff; }
        }
    </style>
    <g transform="matrix(24.498098,0,0,24.498098,-1407.983692,-1842.404962)">
        <path d="M65.311,75.206L65.311,83.043L57.473,83.043L57.473,75.206L65.311,75.206ZM65.027,75.49L60.808,75.457C60.561,75.456 60.561,75.458 57.73,75.463C57.727,76.66 57.729,77.856 57.726,79.053C57.725,79.593 57.716,80.132 57.717,80.672C57.719,81.375 57.732,82.079 57.734,82.783C58.088,82.783 58.443,82.776 58.797,82.776C59.162,82.776 59.162,82.777 61.965,82.795L65.078,82.811C65.074,82.108 65.075,81.405 65.071,80.702L65.027,75.49ZM63.264,80.735C63.531,81.308 64.233,80.686 64.329,81.316C64.339,81.377 64.281,81.372 64.281,82.096C64.281,82.096 62.967,82.229 62.805,82.156C62.718,82.116 62.137,81.651 62.049,81.688C61.849,81.77 60.954,82.373 59.571,82.054C58.485,81.803 58.416,80.105 58.464,79.876C58.527,79.575 59.394,78.316 60.789,78.316L61.065,78.34C61.201,78.34 61.305,78.348 61.377,78.364L61.377,78.256C61.377,76.434 59.145,78.039 59.001,77.8C59.001,77.8 58.918,77.021 58.905,76.708C58.89,76.344 59.547,76.271 59.613,76.264L60.549,76.072C61.773,76.276 62.304,76.541 62.445,76.612C62.806,77.045 63.223,78.402 63.129,79C62.989,79.897 63.15,79.83 63.264,80.735ZM61.529,80.635L61.541,79.687C61.541,78.669 59.794,80.206 60.271,80.856C60.425,81.066 60.877,80.982 60.93,80.973C61.376,80.89 61.5,80.682 61.529,80.635Z"/>
    </g>
</svg>
